<?xml version="1.0" encoding="iso-8859-1"?>
<!-- Generator: Adobe Illustrator 16.0.0, SVG Export Plug-In . SVG Version: 6.00 Build 0)  -->
<!DOCTYPE svg PUBLIC "-//W3C//DTD SVG 1.1//EN" "http://www.w3.org/Graphics/SVG/1.1/DTD/svg11.dtd">
<svg version="1.1" id="Capa_1" xmlns="http://www.w3.org/2000/svg" xmlns:xlink="http://www.w3.org/1999/xlink" x="0px" y="0px"
	 width="334.366px" height="334.365px" viewBox="0 0 334.366 334.365" style="enable-background:new 0 0 334.366 334.365;"
	 xml:space="preserve">
<g>
	<g>
		<g id="Layer_5_6_">
			<g>
				<path d="M167.967,176.448l123.078-159.39c3.58-4.77,2.648-10.95-2.21-14.695C286.831,0.817,284.564,0,282.282,0
					c-3.148,0-6.12,1.55-8.158,4.266l-125.392,171.91c0,0-0.662,1.224,0.78,1.224c4.2,0,12.451,0,16.524,0
					C167.203,177.396,167.967,176.448,167.967,176.448z"/>
				<path d="M274.759,128.529c0,0-0.971-2.841-3.114-1.048c-4.024,3.367-11.789,10.436-15.68,13.956
					c-1.769,1.6-0.766,3.542-0.766,3.542l15.61,37.145c2.341,5.569-0.688,10.128-6.729,10.128H50.364
					c-6.042,0-9.07-4.559-6.729-10.128l18.925-45.031c2.341-5.57,9.2-10.128,15.242-10.128c0,0,66.81,0,89.08,0
					c1.763,0,2.867-1.104,3.411-1.918c2.333-3.487,8.418-11.725,8.418-11.725s2.477-3.269-2.925-3.269
					c-29.337,0-117.349,0-117.349,0c-6.042,0-12.901,4.558-15.242,10.128L18.73,178.394c-2.341,5.57-3.239,14.968-1.996,20.88
					l28.458,124.34c1.243,5.914,7.204,10.752,13.246,10.752h197.571c6.042,0,12.003-4.838,13.247-10.752l28.457-124.341
					c1.244-5.911,0.345-15.309-1.996-20.879L274.759,128.529z"/>
				<path d="M315.031,59.148c-2.163-2.347-4.812-3.586-7.656-3.586c-2.644,0-5.287,1.089-7.464,3.079l-89.132,83.771
					c0,0-1.337,1.403-1.754,1.897c-6.562,7.757-24.84,32.167-24.84,32.167s-0.548,0.921,0.344,0.921c3.443,0,9.91,0,13.271,0
					c0.503,0,0.921-0.371,0.921-0.371l116.104-103.34c2.09-1.91,3.251-4.266,3.358-6.811
					C318.298,64.18,317.208,61.508,315.031,59.148z"/>
			</g>
		</g>
	</g>
</g>
<g>
</g>
<g>
</g>
<g>
</g>
<g>
</g>
<g>
</g>
<g>
</g>
<g>
</g>
<g>
</g>
<g>
</g>
<g>
</g>
<g>
</g>
<g>
</g>
<g>
</g>
<g>
</g>
<g>
</g>
</svg>
