<?xml version="1.0" encoding="iso-8859-1"?>
<!-- Generator: Adobe Illustrator 19.0.0, SVG Export Plug-In . SVG Version: 6.00 Build 0)  -->
<svg version="1.1" id="Layer_1" xmlns="http://www.w3.org/2000/svg" xmlns:xlink="http://www.w3.org/1999/xlink" x="0px" y="0px"
	 viewBox="0 0 465 465" style="enable-background:new 0 0 465 465;" xml:space="preserve">
<g>
	<path d="M125,75h215c35.841,0,65-29.159,65-65h-30c0,19.299-15.701,35-35,35h-1.731L327.5,5h-190l-10.769,40H125
		c-19.299,0-35-15.701-35-35H60C60,45.841,89.159,75,125,75z"/>
	<rect x="77.5" y="235" width="75" height="75"/>
	<rect x="182.5" y="235" width="100" height="75"/>
	<rect x="312.5" y="235" width="75" height="75"/>
	<rect x="5" y="415" width="455" height="45"/>
	<rect x="25" y="340" width="415" height="45"/>
	<path d="M65,205h335c35.841,0,65-29.159,65-65h-30c0,19.299-15.701,35-35,35h-1.731L387.5,135h-60v-30h-190v30h-60l-10.769,40H65
		c-19.299,0-35-15.701-35-35H0C0,175.841,29.159,205,65,205z"/>
</g>
<g>
</g>
<g>
</g>
<g>
</g>
<g>
</g>
<g>
</g>
<g>
</g>
<g>
</g>
<g>
</g>
<g>
</g>
<g>
</g>
<g>
</g>
<g>
</g>
<g>
</g>
<g>
</g>
<g>
</g>
</svg>
