<?xml version="1.0" encoding="iso-8859-1"?>
<!-- Generator: Adobe Illustrator 18.1.1, SVG Export Plug-In . SVG Version: 6.00 Build 0)  -->
<svg version="1.1" id="Capa_1" xmlns="http://www.w3.org/2000/svg" xmlns:xlink="http://www.w3.org/1999/xlink" x="0px" y="0px"
	 viewBox="0 0 42.823 42.823" style="enable-background:new 0 0 42.823 42.823;" xml:space="preserve">
<g>
	<path style="fill:#1D1C1A;" d="M23.142,16.697c-1.131,0.402-2.223,0.818-3.273,1.245c0.065-0.946,0.13-1.917,0.195-2.914
		c0.042-0.642,0.085-1.292,0.128-1.939c2.4-0.372,4.37-0.887,5.127-1.098c1.465-0.409,2.321-1.928,1.912-3.393
		c-0.409-1.464-1.928-2.323-3.393-1.912c-0.96,0.268-2.074,0.522-3.235,0.734c0.119-1.482,0.245-2.953,0.394-4.381
		c0.157-1.513-0.941-2.867-2.454-3.024c-1.509-0.156-2.867,0.942-3.024,2.454c-0.188,1.808-0.345,3.664-0.488,5.53
		c-1.457,0.003-2.67-0.164-3.329-0.588c-1.279-0.823-2.983-0.453-3.806,0.826s-0.453,2.983,0.826,3.806
		c1.564,1.006,3.698,1.396,5.923,1.453c-0.026,0.391-0.052,0.785-0.078,1.173c-0.132,2.028-0.262,4.018-0.406,5.932
		c-7.283,3.895-11.564,8.478-12.06,13.118c-0.332,3.1,1.145,5.911,4.051,7.712c1.669,1.033,3.117,1.392,4.324,1.392
		c1.084,0,1.974-0.289,2.653-0.639c3.967-2.042,5.364-8.223,6.256-18.034c1.65-0.761,3.509-1.52,5.601-2.263
		c2.721-0.968,6.351-1.399,8.182,2.041c1.955,3.672,0.922,10.141-3.687,13.553c-1.223,0.905-1.48,2.63-0.575,3.852
		s2.63,1.48,3.852,0.574c7.187-5.321,8.332-14.819,5.271-20.568C35.244,16.11,29.679,14.375,23.142,16.697z M13.069,30.505
		c-1.01,5.879-2.317,6.707-2.462,6.782c-0.18,0.093-0.744-0.036-1.555-0.539c-1.628-1.008-1.517-2.051-1.475-2.443
		c0.158-1.478,1.712-4.057,5.943-6.912C13.386,28.486,13.237,29.527,13.069,30.505z M40.755,12.765
		c-0.079,1.469-1.294,2.607-2.748,2.606c-0.05,0-0.1-0.001-0.15-0.004c-1.518-0.081-2.683-1.378-2.602-2.897
		c0.076-1.428-0.838-2.09-3.812-3.486c-0.288-0.135-0.575-0.269-0.855-0.405c-1.369-0.663-1.942-2.31-1.279-3.679
		c0.663-1.369,2.31-1.941,3.679-1.279c0.26,0.126,0.527,0.251,0.795,0.377C36.674,5.354,41.043,7.404,40.755,12.765z"/>
</g>
<g>
</g>
<g>
</g>
<g>
</g>
<g>
</g>
<g>
</g>
<g>
</g>
<g>
</g>
<g>
</g>
<g>
</g>
<g>
</g>
<g>
</g>
<g>
</g>
<g>
</g>
<g>
</g>
<g>
</g>
</svg>
